{
	"asset":{
		"generator":"Khronos glTF Blender I/O v4.3.47",
		"version":"2.0"
	},
	"scene":0,
	"scenes":[
		{
			"name":"Scene",
			"nodes":[
				0
			]
		}
	],
	"nodes":[
		{
			"mesh":0,
			"name":"Curve.002",
			"rotation":[
				0.5,
				0.5,
				-0.5,
				0.5
			],
			"scale":[
				0.8219367861747742,
				0.8219367861747742,
				0.8219367861747742
			]
		}
	],
	"materials":[
		{
			"doubleSided":true,
			"name":"SVGMat.003",
			"pbrMetallicRoughness":{
				"baseColorFactor":[
					0.017641769722104073,
					0.0722719356417656,
					0.05780544877052307,
					1
				],
				"metallicFactor":0,
				"roughnessFactor":0.4000000059604645
			}
		}
	],
	"meshes":[
		{
			"name":"Curve.003",
			"primitives":[
				{
					"attributes":{
						"POSITION":0,
						"NORMAL":1,
						"TEXCOORD_0":2
					},
					"indices":3,
					"material":0
				}
			]
		}
	],
	"accessors":[
		{
			"bufferView":0,
			"componentType":5126,
			"count":6920,
			"max":[
				0.31823334097862244,
				0.05999999865889549,
				0.3728291988372803
			],
			"min":[
				-0.3138327896595001,
				-0.05999999865889549,
				-0.4552219808101654
			],
			"type":"VEC3"
		},
		{
			"bufferView":1,
			"componentType":5126,
			"count":6920,
			"type":"VEC3"
		},
		{
			"bufferView":2,
			"componentType":5126,
			"count":6920,
			"type":"VEC2"
		},
		{
			"bufferView":3,
			"componentType":5123,
			"count":20724,
			"type":"SCALAR"
		}
	],
	"bufferViews":[
		{
			"buffer":0,
			"byteLength":83040,
			"byteOffset":0,
			"target":34962
		},
		{
			"buffer":0,
			"byteLength":83040,
			"byteOffset":83040,
			"target":34962
		},
		{
			"buffer":0,
			"byteLength":55360,
			"byteOffset":166080,
			"target":34962
		},
		{
			"buffer":0,
			"byteLength":41448,
			"byteOffset":221440,
			"target":34963
		}
	],
	"buffers":[
		{
			"byteLength":262888,
			"uri":"model3.bin"
		}
	]
}
