{
	"asset":{
		"generator":"Khronos glTF Blender I/O v4.3.47",
		"version":"2.0"
	},
	"scene":0,
	"scenes":[
		{
			"name":"Scene",
			"nodes":[
				0
			]
		}
	],
	"nodes":[
		{
			"mesh":0,
			"name":"Curve.007",
			"rotation":[
				0.5,
				0.5,
				-0.5,
				0.5
			],
			"scale":[
				4.538769245147705,
				4.538769245147705,
				4.538769245147705
			]
		}
	],
	"materials":[
		{
			"doubleSided":true,
			"name":"SVGMat.005",
			"pbrMetallicRoughness":{
				"baseColorFactor":[
					0.017641769722104073,
					0.0722719356417656,
					0.05780544877052307,
					1
				],
				"metallicFactor":0,
				"roughnessFactor":0.4000000059604645
			}
		}
	],
	"meshes":[
		{
			"name":"Curve.004",
			"primitives":[
				{
					"attributes":{
						"POSITION":0,
						"NORMAL":1,
						"TEXCOORD_0":2
					},
					"indices":3,
					"material":0
				}
			]
		}
	],
	"accessors":[
		{
			"bufferView":0,
			"componentType":5126,
			"count":8706,
			"max":[
				0.07003401219844818,
				0.009999999776482582,
				0.06621906906366348
			],
			"min":[
				-0.06686045974493027,
				-0.009999999776482582,
				-0.06319301575422287
			],
			"type":"VEC3"
		},
		{
			"bufferView":1,
			"componentType":5126,
			"count":8706,
			"type":"VEC3"
		},
		{
			"bufferView":2,
			"componentType":5126,
			"count":8706,
			"type":"VEC2"
		},
		{
			"bufferView":3,
			"componentType":5123,
			"count":26100,
			"type":"SCALAR"
		}
	],
	"bufferViews":[
		{
			"buffer":0,
			"byteLength":104472,
			"byteOffset":0,
			"target":34962
		},
		{
			"buffer":0,
			"byteLength":104472,
			"byteOffset":104472,
			"target":34962
		},
		{
			"buffer":0,
			"byteLength":69648,
			"byteOffset":208944,
			"target":34962
		},
		{
			"buffer":0,
			"byteLength":52200,
			"byteOffset":278592,
			"target":34963
		}
	],
	"buffers":[
		{
			"byteLength":330792,
			"uri":"model5.bin"
		}
	]
}
