{
	"asset":{
		"generator":"Khronos glTF Blender I/O v4.3.47",
		"version":"2.0"
	},
	"scene":0,
	"scenes":[
		{
			"name":"Scene",
			"nodes":[
				0
			]
		}
	],
	"nodes":[
		{
			"mesh":0,
			"name":"Curve.004",
			"rotation":[
				0.5,
				0.5,
				-0.5,
				0.5
			],
			"scale":[
				5.318509101867676,
				5.318509101867676,
				5.318509101867676
			]
		}
	],
	"materials":[
		{
			"doubleSided":true,
			"name":"SVGMat.002",
			"pbrMetallicRoughness":{
				"baseColorFactor":[
					0.017641769722104073,
					0.0722719356417656,
					0.05780544877052307,
					1
				],
				"metallicFactor":0,
				"roughnessFactor":0.4000000059604645
			}
		}
	],
	"meshes":[
		{
			"name":"Curve.002",
			"primitives":[
				{
					"attributes":{
						"POSITION":0,
						"NORMAL":1,
						"TEXCOORD_0":2
					},
					"indices":3,
					"material":0
				}
			]
		}
	],
	"accessors":[
		{
			"bufferView":0,
			"componentType":5126,
			"count":5574,
			"max":[
				0.07132335752248764,
				0.009999999776482582,
				0.07634641230106354
			],
			"min":[
				-0.07166787981987,
				-0.009999999776482582,
				-0.07384141534566879
			],
			"type":"VEC3"
		},
		{
			"bufferView":1,
			"componentType":5126,
			"count":5574,
			"type":"VEC3"
		},
		{
			"bufferView":2,
			"componentType":5126,
			"count":5574,
			"type":"VEC2"
		},
		{
			"bufferView":3,
			"componentType":5123,
			"count":16608,
			"type":"SCALAR"
		}
	],
	"bufferViews":[
		{
			"buffer":0,
			"byteLength":66888,
			"byteOffset":0,
			"target":34962
		},
		{
			"buffer":0,
			"byteLength":66888,
			"byteOffset":66888,
			"target":34962
		},
		{
			"buffer":0,
			"byteLength":44592,
			"byteOffset":133776,
			"target":34962
		},
		{
			"buffer":0,
			"byteLength":33216,
			"byteOffset":178368,
			"target":34963
		}
	],
	"buffers":[
		{
			"byteLength":211584,
			"uri":"model4.bin"
		}
	]
}
