{
	"asset":{
		"generator":"Khronos glTF Blender I/O v4.3.47",
		"version":"2.0"
	},
	"scene":0,
	"scenes":[
		{
			"name":"Scene",
			"nodes":[
				0
			]
		}
	],
	"nodes":[
		{
			"mesh":0,
			"name":"Curve.016",
			"rotation":[
				0.5,
				0.5,
				-0.5,
				0.5
			],
			"scale":[
				4.254228591918945,
				4.254230499267578,
				4.254230499267578
			],
			"translation":[
				0,
				0.005505174398422241,
				-0.007615090347826481
			]
		}
	],
	"materials":[
		{
			"doubleSided":true,
			"name":"SVGMat.010",
			"pbrMetallicRoughness":{
				"baseColorFactor":[
					0.017641769722104073,
					0.0722719356417656,
					0.05780544877052307,
					1
				],
				"metallicFactor":0.09633028507232666,
				"roughnessFactor":0.4000000059604645
			}
		}
	],
	"meshes":[
		{
			"name":"Curve.047",
			"primitives":[
				{
					"attributes":{
						"POSITION":0,
						"NORMAL":1,
						"TEXCOORD_0":2
					},
					"indices":3,
					"material":0
				}
			]
		}
	],
	"accessors":[
		{
			"bufferView":0,
			"componentType":5126,
			"count":8419,
			"max":[
				0.07261475175619125,
				0.019999999552965164,
				0.08573344349861145
			],
			"min":[
				-0.0713304802775383,
				-0.019999999552965164,
				-0.0815381407737732
			],
			"type":"VEC3"
		},
		{
			"bufferView":1,
			"componentType":5126,
			"count":8419,
			"type":"VEC3"
		},
		{
			"bufferView":2,
			"componentType":5126,
			"count":8419,
			"type":"VEC2"
		},
		{
			"bufferView":3,
			"componentType":5123,
			"count":25092,
			"type":"SCALAR"
		}
	],
	"bufferViews":[
		{
			"buffer":0,
			"byteLength":101028,
			"byteOffset":0,
			"target":34962
		},
		{
			"buffer":0,
			"byteLength":101028,
			"byteOffset":101028,
			"target":34962
		},
		{
			"buffer":0,
			"byteLength":67352,
			"byteOffset":202056,
			"target":34962
		},
		{
			"buffer":0,
			"byteLength":50184,
			"byteOffset":269408,
			"target":34963
		}
	],
	"buffers":[
		{
			"byteLength":319592,
			"uri":"model1.bin"
		}
	]
}
