{
	"asset":{
		"generator":"Khronos glTF Blender I/O v4.3.47",
		"version":"2.0"
	},
	"scene":0,
	"scenes":[
		{
			"name":"Scene",
			"nodes":[
				0
			]
		}
	],
	"nodes":[
		{
			"mesh":0,
			"name":"Curve.025",
			"rotation":[
				0,
				0,
				-0.7071068286895752,
				0.7071068286895752
			],
			"scale":[
				5.357995986938477,
				5.357995986938477,
				5.357995986938477
			]
		}
	],
	"materials":[
		{
			"doubleSided":true,
			"name":"SVGMat.004",
			"pbrMetallicRoughness":{
				"baseColorFactor":[
					0.017641769722104073,
					0.0722719356417656,
					0.05780544877052307,
					1
				],
				"metallicFactor":0,
				"roughnessFactor":0.4000000059604645
			}
		}
	],
	"meshes":[
		{
			"name":"Curve.024",
			"primitives":[
				{
					"attributes":{
						"POSITION":0,
						"NORMAL":1,
						"TEXCOORD_0":2
					},
					"indices":3,
					"material":0
				}
			]
		}
	],
	"accessors":[
		{
			"bufferView":0,
			"componentType":5126,
			"count":16161,
			"max":[
				0.07766269892454147,
				0.009999999776482582,
				0.0752461776137352
			],
			"min":[
				-0.07831906527280807,
				-0.009999999776482582,
				-0.0744892880320549
			],
			"type":"VEC3"
		},
		{
			"bufferView":1,
			"componentType":5126,
			"count":16161,
			"type":"VEC3"
		},
		{
			"bufferView":2,
			"componentType":5126,
			"count":16161,
			"type":"VEC2"
		},
		{
			"bufferView":3,
			"componentType":5123,
			"count":48084,
			"type":"SCALAR"
		}
	],
	"bufferViews":[
		{
			"buffer":0,
			"byteLength":193932,
			"byteOffset":0,
			"target":34962
		},
		{
			"buffer":0,
			"byteLength":193932,
			"byteOffset":193932,
			"target":34962
		},
		{
			"buffer":0,
			"byteLength":129288,
			"byteOffset":387864,
			"target":34962
		},
		{
			"buffer":0,
			"byteLength":96168,
			"byteOffset":517152,
			"target":34963
		}
	],
	"buffers":[
		{
			"byteLength":613320,
			"uri":"model2.bin"
		}
	]
}
