<svg width="28" height="28" viewBox="0 0 28 28" fill="none" xmlns="http://www.w3.org/2000/svg">
<path d="M9.05078 9.04395L9.05078 7.91673C9.05078 5.41682 11.0774 3.39025 13.5773 3.39025V3.39025C16.0772 3.39025 18.1038 5.41682 18.1038 7.91673L18.1038 9.04395" stroke="#4FA695" stroke-width="0.939334" stroke-linecap="round"/>
<path d="M4.52734 12.3316C4.52734 10.7818 4.52734 10.0069 5.00881 9.52541C5.49028 9.04395 6.26519 9.04395 7.81501 9.04395H19.3456C20.8954 9.04395 21.6704 9.04395 22.1518 9.52541C22.6333 10.0069 22.6333 10.7818 22.6333 12.3316V17.1682C22.6333 20.2679 22.6333 21.8177 21.6704 22.7806C20.7074 23.7436 19.1576 23.7436 16.058 23.7436H11.1027C8.00304 23.7436 6.45322 23.7436 5.49028 22.7806C4.52734 21.8177 4.52734 20.2679 4.52734 17.1682V12.3316Z" stroke="#4FA695" stroke-width="0.939334"/>
</svg>
