<svg width="50" height="44" viewBox="0 0 50 44" fill="none" xmlns="http://www.w3.org/2000/svg">
<g clip-path="url(#clip0_3899_41)">
<path d="M39.7097 23.061C39.7097 23.061 37.4079 24.9143 36.5502 25.3916C35.859 25.7762 33.6169 26.5682 33.6169 26.5682C33.6169 26.5682 32.2737 26.9899 31.8108 27.068C31.1505 27.1791 29.7991 27.1976 29.1306 27.1441C28.3407 27.0804 26.7835 26.7656 26.0204 26.5538C25.8023 26.4921 25.5061 26.3974 25.1914 26.2864C24.7224 26.1197 24.2123 25.9202 23.8544 25.7454C23.7885 25.7104 23.7268 25.6795 23.6733 25.6487C23.2064 25.3895 22.398 24.6798 21.9845 24.3425C21.4086 23.8735 20.2875 22.8841 19.8185 22.3061C19.5244 21.942 18.8476 20.7057 18.8476 20.7057C18.8476 20.7057 18.7797 20.5741 18.6769 20.3725C18.5062 20.0331 18.2388 19.4941 18.0454 19.0683C17.9652 18.8894 17.8973 18.731 17.8562 18.6158C17.6319 17.9925 17.3686 16.6843 17.2658 16.0302C17.2514 15.9335 17.237 15.8224 17.2226 15.701C17.1773 15.2835 17.1424 14.7384 17.13 14.257C17.1239 13.9588 17.1239 13.6831 17.1362 13.4754C17.165 12.9323 17.3296 11.8483 17.4838 11.3258C17.5641 11.0543 17.6895 10.6799 17.8356 10.2891C18.0084 9.82419 18.2079 9.33051 18.391 8.95819C18.4445 8.84712 18.4959 8.74632 18.5452 8.65993C18.8229 8.17036 19.5984 7.13775 20.1065 6.47334C20.3821 6.11336 20.5817 5.86035 20.5817 5.86035L21.9537 7.10895C21.9537 7.10895 21.6986 7.31259 21.3345 7.72811C20.9807 8.13334 20.522 8.73809 20.0901 9.55267C19.8823 9.9435 19.6807 10.3816 19.4997 10.8712C19.44 11.0378 19.3804 11.2106 19.3248 11.3896C19.0451 12.2802 18.8723 13.2717 18.8415 14.3146C18.825 14.7857 18.8415 15.2691 18.8908 15.7586C18.932 16.1741 18.9978 16.5958 19.0883 17.0175C19.1994 17.5277 19.3495 18.0398 19.5449 18.5479C19.5861 18.6652 19.6334 18.7804 19.6807 18.8956C19.8185 19.2206 19.9707 19.5435 20.1456 19.8623C21.0178 21.473 22.3733 22.9952 24.346 24.252C24.4961 24.3466 24.6504 24.4412 24.8068 24.5338C25.0413 24.6716 25.3189 24.8135 25.6316 24.9514C27.2546 25.6734 29.8423 26.3152 32.2696 25.7968C34.4623 25.3299 36.9492 23.927 38.7285 21.8186L39.7097 23.061Z" fill="#4EA795"/>
<path d="M49.4948 27.4754C49.6429 27.9588 49.6593 28.724 48.8983 29.6188C48.602 29.9664 48.2503 30.205 47.8636 30.3305C47.5139 30.4437 47.1375 30.4642 46.7466 30.384C46.0616 30.2482 45.4733 29.8368 45.0969 29.518L37.4922 23.0364L38.6626 22.1416L46.0308 28.4216C46.3784 28.7178 46.7322 28.9132 47.0326 28.975C47.3452 29.0387 47.5756 28.9523 47.8019 28.6849C47.9561 28.506 48.2009 28.1645 48.1186 27.8991C48.0734 27.749 47.7957 27.2306 46.111 26.7637C45.7284 26.6567 45.5042 26.2597 45.6112 25.8771C45.7181 25.4925 46.1151 25.2703 46.4977 25.3752C48.2277 25.8545 49.2089 26.5436 49.4948 27.4754Z" fill="#4EA795"/>
<path d="M39.1152 42.0728C38.9301 42.5439 38.4693 43.1528 37.3153 43.3811C37.2536 43.3934 37.1899 43.4037 37.1282 43.4119C35.7726 43.5868 34.7338 42.657 34.3965 40.9435L31.4961 26.271L32.9278 26.0879L35.8096 40.6638C36.005 41.6532 36.4103 42.0955 37.0356 41.97C37.268 41.9247 37.6733 41.8075 37.772 41.5483C37.8296 41.4043 37.9324 40.8222 36.9019 39.4111C36.6674 39.0902 36.7394 38.6397 37.0603 38.4032C37.3812 38.1707 37.8317 38.2406 38.0682 38.5615C39.1255 40.0138 39.469 41.1616 39.1152 42.0728Z" fill="#4EA795"/>
<path d="M27.1304 34.7387C27.3403 36.5262 27.0749 37.6946 26.32 38.3117C26.0546 38.5277 25.6494 38.7375 25.0714 38.7375C24.7916 38.7375 24.4728 38.6882 24.1108 38.5688C23.2859 38.2973 22.7429 37.6946 22.5865 36.8677C22.4549 36.1827 22.6112 35.4813 22.7634 35.0143L25.4375 26.883L25.9292 25.3896C26.0793 25.4843 26.2336 25.5789 26.3899 25.6715C26.6244 25.8093 26.9021 25.9512 27.2148 26.089L26.7746 27.424L24.1313 35.4628C23.9894 35.8947 23.9421 36.2979 23.9997 36.5982C24.0593 36.9109 24.228 37.0919 24.5592 37.2009C24.7855 37.275 25.1928 37.3737 25.4087 37.1968C25.528 37.0981 25.9045 36.6435 25.7008 34.9074C25.6535 34.5124 25.9374 34.1545 26.3323 34.1093C26.7273 34.062 27.0831 34.3438 27.1304 34.7387Z" fill="#4EA795"/>
<path d="M10.4916 34.3735C10.3846 34.6738 10.436 34.9145 10.6664 35.1778C10.8227 35.3568 11.1251 35.6489 11.3987 35.6077C11.553 35.583 12.1084 35.3835 12.816 33.7852C12.9785 33.4232 13.4022 33.2586 13.7663 33.4191C14.1304 33.5816 14.295 34.0053 14.1325 34.3694C13.4043 36.013 12.5794 36.8851 11.6147 37.0312C11.5304 37.0435 11.4378 37.0517 11.3391 37.0517C10.8577 37.0517 10.2242 36.8604 9.58238 36.1261C9.01053 35.472 8.85214 34.6759 9.13807 33.886C9.37462 33.2278 9.86624 32.7032 10.2365 32.3803L21.659 22.3936L22.5394 23.5372L11.1827 33.4643C10.8413 33.7646 10.5944 34.0876 10.4916 34.3735Z" fill="#4EA795"/>
<path d="M8.45734 22.4015C8.51288 22.6319 8.64247 23.033 8.90371 23.1235C9.05181 23.1749 9.63395 23.2572 11.0101 22.1793C11.3227 21.9325 11.7773 21.988 12.0221 22.3007C12.269 22.6134 12.2134 23.0659 11.9008 23.3127C10.7056 24.2487 9.71005 24.6704 8.87491 24.584C8.71858 24.5675 8.57253 24.5346 8.42854 24.4832C7.95132 24.3166 7.32599 23.8743 7.05652 22.7327C6.71918 21.2948 7.61397 20.145 9.39122 19.7295L17.1523 17.909L18.3248 17.6334L18.6971 17.5449C18.7259 17.6663 18.7609 17.7856 18.7958 17.9049C18.8987 18.2422 19.018 18.5796 19.1579 18.9149L17.6439 19.2707L9.71828 21.1303C8.73709 21.3586 8.31335 21.7885 8.45734 22.4015Z" fill="#4EA795"/>
<path d="M22.242 7.07506C21.8984 7.35275 21.5405 7.67776 21.1826 8.0583L19.8785 6.87141L14.5858 2.04981C14.2485 1.74331 13.9008 1.53556 13.6046 1.46562C13.292 1.39362 13.0595 1.46973 12.823 1.73097C12.6646 1.90582 12.4074 2.23905 12.4794 2.50852C12.5206 2.65868 12.7839 3.18733 14.45 3.70775C14.8285 3.83117 15.0404 4.23228 14.9232 4.61077C14.8038 4.99132 14.3986 5.20113 14.0201 5.08388C12.3025 4.54495 11.346 3.82705 11.091 2.88495C10.9593 2.39744 10.9675 1.63224 11.7574 0.764181C12.3437 0.122398 13.115 -0.126499 13.9337 0.0668585C14.6146 0.229362 15.1906 0.657218 15.5547 0.988394L20.9111 5.8676L22.242 7.07506Z" fill="#4EA795"/>
<path d="M1.47555 11.727C1.43235 11.9594 1.38915 12.377 1.5928 12.5662C1.70593 12.6732 2.20578 12.9838 3.90075 12.5539C4.28541 12.4572 4.67624 12.6897 4.77703 13.0743C4.87371 13.459 4.64127 13.8498 4.25661 13.9485C2.51433 14.3949 1.31922 14.2838 0.607493 13.6153C0.23929 13.2697 -0.155654 12.6135 0.0623885 11.4596C0.222834 10.6059 0.749426 9.98881 1.54754 9.72346C2.21195 9.5013 2.92573 9.56507 3.40913 9.65558L16.9606 12.2001L18.6433 12.5148C18.5569 12.9776 18.4993 13.459 18.4746 13.9506L16.8352 13.642L3.14172 11.0708C2.69741 10.9885 2.29012 10.9947 2.00008 11.0893C1.6977 11.1922 1.53931 11.3814 1.47555 11.727Z" fill="#4EA795"/>
<path d="M19.6793 18.8952C19.5189 18.8294 19.3543 18.7553 19.1815 18.6731C18.9676 18.5723 18.7434 18.4571 18.5109 18.3275C18.1612 18.1341 18.0358 17.698 18.2271 17.3484C18.3999 17.0398 18.764 16.9061 19.0869 17.0172C19.198 17.5273 19.3481 18.0395 19.5436 18.5476C19.5847 18.6648 19.632 18.78 19.6793 18.8952Z" fill="#4EA795"/>
<path d="M29.1192 18.3234C30.5086 18.3234 31.6349 17.1971 31.6349 15.8077C31.6349 14.4183 30.5086 13.292 29.1192 13.292C27.7298 13.292 26.6035 14.4183 26.6035 15.8077C26.6035 17.1971 27.7298 18.3234 29.1192 18.3234Z" fill="#4EA795"/>
</g>
<defs>
<clipPath id="clip0_3899_41">
<rect width="49.5758" height="43.4335" fill="white"/>
</clipPath>
</defs>
</svg>
