<svg width="80" height="80" viewBox="0 0 80 80" fill="none" xmlns="http://www.w3.org/2000/svg">
<circle cx="40" cy="40" r="40" fill="#1D1D1D"/>
<path d="M31.0751 48.3912C29.3677 48.1853 28.0384 48.3711 27.2238 49.9724C26.6 51.195 26.9363 52.9819 28.0619 53.6421C28.2274 53.7381 28.6268 53.753 28.6395 53.7149C28.7301 53.3967 28.8623 53.0238 28.7819 52.7286C28.5661 51.9317 28.1948 51.2658 29.1084 50.5565C30.651 49.3586 31.9939 50.6805 32.2314 52.1769C32.5275 54.0408 31.6634 55.563 30.8282 57.0558C30.3213 57.9625 29.6655 58.7765 29.0991 59.6487C28.944 59.8886 28.8696 60.1902 28.7583 60.4633C29.0603 60.5579 29.365 60.7352 29.6656 60.7313C32.4905 60.6791 35.314 60.5919 38.1359 60.5256C38.4557 60.5191 38.776 60.5835 39.1882 60.6237C35.0142 65.4748 28.3454 65.1529 24.4136 61.7322C22.9583 60.4655 21.8849 58.7461 22.1341 56.2927C22.4361 53.3256 22.1933 50.2979 22.2726 47.3009C22.3535 44.2449 22.5482 41.1939 22.6734 38.1405C22.7224 36.9784 22.819 35.8023 22.7105 34.6526C22.5121 32.5388 23.3373 31.0906 24.7576 29.6702C26.52 27.9068 28.0586 25.8702 29.5827 23.8546C30.515 22.6224 30.1811 19.1083 29.1768 17.7571C28.1497 16.3745 25.8061 15.741 24.1634 16.5882C23.257 17.056 22.4055 17.7557 21.7094 18.5326C21.3219 18.9649 21.2147 19.767 21.1643 20.4193C21.1427 20.6945 21.5598 21.1898 21.8434 21.2511C22.0862 21.306 22.522 20.9559 22.6993 20.6639C23.7111 18.991 24.7526 18.3979 26.2444 18.7309C28.0631 19.1383 29.1538 21.059 28.3557 22.8467C27.8281 24.0307 26.9998 25.1298 26.1027 26.0382C25.1352 27.018 23.9675 27.7964 22.8212 28.5458C21.6649 29.3018 21.1494 30.3769 21.1234 31.7481C21.0307 36.7231 20.9401 41.6972 20.8907 46.6725C20.8504 50.8293 20.8096 54.9913 20.9111 59.1471C20.9353 60.0868 21.3339 61.2317 21.9353 61.9017C24.569 64.8331 27.8388 66.2753 31.6887 66.1899C34.8417 66.1203 37.6802 65.2984 39.9523 62.7872C40.1372 62.5836 40.87 62.6321 41.1201 62.8567C43.8442 65.2796 47.0457 66.2796 50.4683 65.9392C53.4027 65.6475 56.2113 64.726 57.9627 61.7332C59.2998 59.4475 59.3805 56.9348 59.4126 54.3959C59.4685 50.1263 59.4737 45.8567 59.5095 41.5874C59.5335 38.8513 59.704 36.107 59.5718 33.3802C59.4182 30.2457 57.3161 28.4618 55.1454 26.7282C53.8786 25.716 52.5709 24.583 51.7315 23.1936C51.1871 22.2925 51.1809 20.7464 51.4706 19.6527C51.6453 18.9937 52.8123 18.3527 53.604 18.2253C54.8091 18.0337 55.8739 18.6624 56.469 19.9366C56.7172 20.4666 56.9411 21.0622 57.3287 21.4525C57.6519 21.7772 58.2015 21.8435 58.6497 22.0241C58.8062 21.5221 59.1679 20.981 59.0877 20.5282C58.7315 18.5336 57.5473 17.0947 55.8833 16.2443C52.8961 14.7217 49.8163 16.435 49.293 19.0847C48.7153 22.0101 49.5701 24.5891 51.7454 26.5619C52.3721 27.1304 53.0469 27.6669 53.7636 28.0926C56.7774 29.8838 57.857 32.7889 57.8107 36.2475C57.7421 41.3397 57.5607 46.4289 57.4108 51.5208C57.3518 53.5119 57.1703 55.5014 57.1918 57.4907C57.2302 61.2047 54.9155 62.8318 52.1379 63.7104C48.4191 64.888 45.1177 62.9812 41.8961 61.2227C41.7372 61.1366 41.656 60.89 41.4816 60.6325C43.6555 60.6283 45.7026 60.5988 47.7519 60.6319C48.966 60.6524 50.1807 60.8072 51.3943 60.8329C51.7343 60.8386 52.0775 60.5994 52.4199 60.4721C52.279 60.1148 52.2055 59.6975 51.986 59.4099C50.9975 58.1235 49.9325 56.9058 48.9611 55.6049C48.1106 54.4662 49.0442 50.6059 50.3198 50.0838C50.7234 49.9193 51.3226 50.1155 51.7599 50.3258C51.8982 50.3922 51.9043 51.0777 51.7839 51.3977C51.5213 52.0971 51.5544 52.7109 52.3113 52.7372C52.7676 52.7546 53.4615 52.3771 53.6658 51.9625C54.1909 50.8988 53.4746 49.2721 52.2792 48.4063C51.417 47.7826 49.49 47.9466 48.7218 48.7272C48.4749 48.9786 48.2784 49.2859 47.7439 49.4471C48.1685 48.4872 48.5121 47.4709 49.0409 46.5808C49.9697 45.0174 51.1235 43.5973 51.9836 41.9955C53.6046 38.9814 51.224 34.7198 47.9694 34.6627C45.3841 34.6162 43.1688 37.851 44.0477 40.4584C44.4182 41.5588 45.2585 41.8054 46.466 41.468C46.3178 41.1239 46.2522 40.777 46.0581 40.5528C45.2266 39.5816 45.3856 38.5608 46.0001 37.6312C46.5892 36.7398 47.4343 36.5682 48.4388 36.9647C50.6072 37.8259 51.1082 39.049 50.0056 41.2483C49.3984 42.4618 48.6718 43.6115 47.9678 44.7673C45.501 48.8113 45.3571 53.4311 48.2625 57.571C48.4158 57.7887 48.5137 58.0515 48.7342 58.4809C47.879 58.5829 47.132 58.733 46.3812 58.7474C44.689 58.7817 42.9928 58.7871 41.3026 58.7064C41.0152 58.6923 40.504 58.1967 40.5033 57.9228C40.4899 51.2286 40.5335 44.5369 40.5604 37.8418C40.5676 35.7724 40.557 33.7025 40.5521 31.3689C41.0783 31.6807 41.2727 31.7601 41.4299 31.8925C43.9068 33.9905 47.3343 32.8587 48.2515 29.5965C48.377 29.1501 48.2665 28.5902 48.1478 28.1174C48.0828 27.8541 47.7192 27.4415 47.584 27.478C47.3081 27.5558 47.0446 27.8544 46.8708 28.1298C46.6568 28.4696 46.5707 28.9002 46.3685 29.2504C45.2612 31.185 43.4132 31.16 41.9597 29.5372C40.419 27.8174 41.3028 25.9395 41.1065 24.1346C41.2017 24.0303 41.2992 23.9252 41.3944 23.821C42.2443 24.4522 43.0943 25.0834 43.9162 25.6954C44.8974 24.8193 45.8091 24.0041 46.7173 23.1928C46.1068 22.3233 45.5298 21.5876 45.0437 20.7875C44.4327 19.7837 43.7955 20.0242 43.1325 20.6558C42.5832 21.1784 42.0676 21.7408 41.5375 22.2861C41.3741 22.1257 41.2138 21.9666 41.0504 21.8062C41.7844 20.8516 42.517 19.9001 43.3811 18.7765C42.6769 17.7999 41.8403 16.5947 40.9386 15.4486C40.8343 15.3152 40.2228 15.3982 40.0795 15.5852C39.5719 16.2433 39.0284 16.9387 38.7633 17.7204C38.5619 18.3191 38.6988 19.0841 38.8002 19.7543C38.8954 20.3964 39.1376 21.0126 39.3164 21.6415C39.1818 21.7362 39.0471 21.8308 38.9125 21.9255C38.2936 21.3259 37.5952 20.7939 37.0764 20.1084C36.4897 19.336 36.1219 19.4633 35.7067 20.2063C35.6176 20.3639 35.5325 20.5377 35.4075 20.6564C33.4916 22.4864 33.5139 22.4597 35.3002 24.3551C36.0313 25.1331 36.6061 25.4837 37.4603 24.5062C37.795 24.1257 38.4481 24.0641 38.9567 23.8575C39.1381 24.4422 39.4717 25.0268 39.4723 25.6104C39.4763 27.1447 39.285 28.6355 38.377 29.9596C37.0501 31.8909 34.6309 30.9298 33.7138 29.3279C33.4652 28.892 33.2582 28.414 32.944 28.0425C32.7215 27.7789 32.274 27.4483 32.0566 27.5329C31.7794 27.6391 31.4746 28.1194 31.4539 28.4603C31.3266 30.357 33.8685 32.9901 35.648 32.7557C36.9157 32.5871 38.1586 32.2051 39.3654 31.9289C39.3686 33.6514 39.3686 35.53 39.3738 37.4091C39.384 41.3121 39.4129 45.2176 39.3977 49.1206C39.3866 51.9964 39.333 54.8739 39.2396 57.7471C39.2307 58.0223 38.8321 58.4209 38.5418 58.5196C38.0165 58.6974 37.4373 58.7471 36.8773 58.756C35.2796 58.7854 33.6822 58.7715 31.9007 58.7731C32.3889 57.94 33.014 57.1128 33.3949 56.1704C34.0057 54.656 34.4051 53.1146 33.9752 51.373C33.2794 48.5449 31.8998 46.1257 30.4625 43.7019C30.0132 42.9429 29.7046 42.0284 29.5522 41.1426C29.1065 38.5772 29.4995 37.9117 31.7419 36.9838C32.9655 36.4776 34.748 38.1105 34.8089 39.7362C34.8256 40.189 35.0458 40.6363 35.1749 41.0846C35.4911 40.9805 35.9501 40.9791 36.0902 40.7528C36.3173 40.3824 36.4878 39.8392 36.4177 39.418C35.908 36.3451 33.7558 34.7083 31.0246 35.2408C29.2829 35.5818 27.6887 37.6001 27.6712 39.4731C27.6396 42.4687 29.2724 44.7786 30.4884 47.2583C30.641 47.5753 30.8046 47.8753 31.0751 48.3912Z" fill="#4FA695"/>
</svg>
