<svg width="80" height="80" viewBox="0 0 80 80" fill="none" xmlns="http://www.w3.org/2000/svg">
<circle cx="40" cy="40" r="40" fill="#1D1D1D"/>
<g clip-path="url(#clip0_2335_4813)">
<path d="M46.1026 28.9489C45.5309 29.4767 44.861 29.75 44.1498 29.75C44.0354 29.75 43.9205 29.7432 43.8039 29.7285C42.6721 29.5906 41.6328 28.8068 40.8615 28.0345V41.1146L44.837 37.1392C45.1233 36.8528 45.5868 36.8528 45.8732 37.1392C46.1595 37.4255 46.1595 37.889 45.8732 38.1754L40.8615 43.187V46.1268H39.3958V43.1896L34.3815 38.1754C34.0962 37.889 34.0962 37.4255 34.3815 37.1392C34.6679 36.8528 35.1324 36.8528 35.4188 37.1392L39.3958 41.1173V28.0721C38.6292 28.8324 37.6051 29.5932 36.492 29.7285C36.3755 29.7432 36.2611 29.75 36.1461 29.75C35.435 29.75 34.7651 29.4767 34.1934 28.9484C33.1311 27.9692 32.7068 26.5087 33.059 25.0435C33.3615 23.7847 34.1772 22.8258 35.1883 22.5421C35.7176 22.3937 36.7721 22.3116 37.8888 23.4335C38.1741 23.7204 38.1731 24.1844 37.8862 24.4697C37.5993 24.755 37.1353 24.754 36.85 24.4671C36.5412 24.1578 36.0704 23.8171 35.5844 23.9534C35.1 24.0898 34.6574 24.6646 34.4845 25.3857C34.2587 26.3273 34.5216 27.2564 35.1878 27.8714C35.5395 28.1965 35.8974 28.325 36.3139 28.2743C37.5053 28.1301 38.8299 26.6053 39.3963 25.8189V16.9143L38.1151 15.6341C37.8726 15.3917 37.8726 14.9987 38.1151 14.7563L39.69 13.1818C39.9324 12.9394 40.3254 12.9394 40.5678 13.1818L42.1423 14.7563C42.3847 14.9987 42.3847 15.3917 42.1423 15.6341L40.862 16.9143V25.7635C41.1139 26.1204 41.5429 26.6565 42.0519 27.142C42.6381 27.7016 43.3305 28.1938 43.9832 28.2733C44.3996 28.3234 44.7576 28.1954 45.1092 27.8704C45.7755 27.2559 46.0388 26.3263 45.8126 25.3847C45.6391 24.6641 45.197 24.0888 44.7126 23.9524C44.2261 23.8155 43.7559 24.1567 43.447 24.4661C43.1617 24.7529 42.6977 24.754 42.4108 24.4687C42.124 24.1834 42.1229 23.7193 42.4082 23.4325C43.5249 22.3106 44.5794 22.3926 45.1087 22.541C46.1198 22.8248 46.9355 23.7836 47.2381 25.0424C47.5887 26.5081 47.1644 27.9686 46.1026 28.9489Z" fill="#4EA795"/>
<path d="M45.8372 19.6621L44.2622 21.2371C44.0198 21.4795 43.6279 21.4795 43.3854 21.2371L42.1052 19.9569H38.0743L36.9232 21.107C36.6807 21.3494 36.2878 21.3494 36.0453 21.107L34.4709 19.5326C34.2284 19.2901 34.2284 18.8971 34.4709 18.6547L36.0453 17.0803C36.2878 16.8378 36.6807 16.8378 36.9232 17.0803L38.3346 18.4906H42.1041L43.3854 17.2093C43.6279 16.9669 44.0198 16.9669 44.2622 17.2093L45.8372 18.7843C46.0796 19.0273 46.0796 19.4197 45.8372 19.6621Z" fill="#4EA795"/>
<path d="M31.4865 64.1078C27.8088 64.1078 24.1981 62.4273 21.8268 59.6124C19.4822 56.8299 18.5505 53.2129 19.2032 49.4276C19.9379 45.1653 23.1238 41.5749 25.9345 38.4073C27.9071 36.1839 29.7705 34.0838 30.5496 32.0632C31.3673 29.9411 30.8934 28.1561 29.0122 26.2745C27.5962 24.8584 25.9157 24.3907 24.4014 24.9916C23.001 25.5471 22.0651 26.9376 22.0165 28.5339C21.9878 29.4902 22.5835 30.3733 23.6097 30.8963C24.5498 31.3755 25.6325 31.4136 26.1832 30.9867C26.7152 30.575 26.6681 29.7729 26.5354 29.1725C26.4482 28.7774 26.6974 28.3861 27.0924 28.2988C27.4875 28.2115 27.8789 28.4608 27.9661 28.8558C28.3941 30.7903 27.5946 31.7475 27.0799 32.1457C26.0714 32.9259 24.4092 32.9489 22.9435 32.2022C21.3983 31.4152 20.5038 30.0273 20.5503 28.4895C20.6161 26.3079 21.9151 24.4001 23.8595 23.6294C25.9126 22.8153 28.2253 23.4167 30.0469 25.2383C32.3309 27.5223 32.9423 29.927 31.9155 32.5904C31.0413 34.8587 29.0922 37.055 27.0292 39.3803C24.219 42.5489 21.3111 45.8263 20.6475 49.6769C20.0695 53.0284 20.8868 56.2217 22.9477 58.6687C25.0436 61.157 28.2358 62.6426 31.4859 62.6426C35.0199 62.6426 38.5966 59.5387 38.5966 53.6069C38.5966 46.944 34.5914 45.9298 32.2039 45.9188C32.1929 45.9188 32.1814 45.9188 32.1705 45.9188C28.8236 45.9188 27.1651 48.3183 27.0067 50.7037C26.8531 53.0169 28.0827 55.6861 31.1463 56.0806C32.7385 56.2859 33.7015 55.7639 34.0072 54.5292C34.3662 53.0812 33.6639 51.3323 33.0368 51.0977C32.7813 51.0015 32.427 51.4807 32.2023 51.9201C32.0179 52.2807 31.5763 52.4228 31.2163 52.2389C30.8558 52.0544 30.7131 51.6129 30.8976 51.2528C31.8742 49.344 33.0781 49.5489 33.5505 49.7249C35.0089 50.2705 35.9401 52.8252 35.4301 54.8824C35.2059 55.7864 34.7173 56.5106 34.0161 56.9778C33.2229 57.5066 32.194 57.6937 30.9587 57.5348C29.18 57.3059 27.7184 56.4437 26.7329 55.0418C25.8587 53.7987 25.4365 52.2232 25.5436 50.607C25.6529 48.9667 26.3008 47.4561 27.3683 46.3546C28.5733 45.1109 30.2329 44.4541 32.1694 44.4541C32.183 44.4541 32.1966 44.4541 32.2107 44.4541C33.5939 44.4609 35.5931 44.764 37.2631 46.1712C39.1202 47.7367 40.0624 50.2386 40.0624 53.6079C40.0624 57.5656 38.6149 60.0101 37.4011 61.3634C35.8366 63.1072 33.6806 64.1078 31.4865 64.1078Z" fill="#4EA795"/>
<path d="M49.2176 64.1094C47.0234 64.1094 44.8674 63.1087 43.3019 61.3634C42.0881 60.0101 40.6406 57.5656 40.6406 53.6079C40.6406 50.2386 41.5822 47.7367 43.4399 46.1712C45.1099 44.764 47.1091 44.4604 48.4923 44.4541C48.5059 44.4541 48.52 44.4541 48.533 44.4541C50.4696 44.4541 52.1286 45.1109 53.3341 46.3546C54.4017 47.4566 55.0496 48.9667 55.1588 50.607C55.2665 52.2237 54.8443 53.7987 53.9695 55.0418C52.9835 56.4437 51.5225 57.3054 49.7438 57.5348C48.508 57.6937 47.4796 57.5066 46.6864 56.9778C45.9857 56.5106 45.4966 55.7864 45.2724 54.8824C44.7624 52.8252 45.6936 50.271 47.152 49.7249C47.6238 49.5483 48.8283 49.3435 49.8049 51.2528C49.9894 51.6134 49.8467 52.0549 49.4862 52.2389C49.1256 52.4233 48.6841 52.2807 48.5001 51.9201C48.2754 51.4807 47.9227 51.001 47.6656 51.0977C47.0386 51.3323 46.3363 53.0812 46.6953 54.5292C47.0015 55.7634 47.964 56.2859 49.5567 56.0806C52.6203 55.6861 53.8504 53.0169 53.6962 50.7037C53.5369 48.3104 51.8653 45.9036 48.4986 45.9188C46.1111 45.9303 42.1058 46.944 42.1058 53.6069C42.1058 59.5387 45.6831 62.6426 49.2165 62.6426C52.4672 62.6426 55.6589 61.157 57.7553 58.6687C59.8162 56.2217 60.6335 53.0284 60.0555 49.6769C59.3919 45.8263 56.484 42.5489 53.6722 39.3803C51.6092 37.055 49.6602 34.8587 48.786 32.5904C47.7592 29.927 48.3705 27.5223 50.6545 25.2383C52.4761 23.4167 54.7889 22.8153 56.8419 23.6294C58.7863 24.4007 60.0853 26.3084 60.1512 28.4895C60.1977 30.0273 59.3031 31.4152 57.7579 32.2022C56.2922 32.9489 54.63 32.9264 53.622 32.1457C53.1073 31.7475 52.3079 30.7903 52.7358 28.8558C52.8231 28.4608 53.2145 28.211 53.6095 28.2988C54.0045 28.3861 54.2543 28.7774 54.1665 29.1725C54.0338 29.7729 53.9868 30.575 54.5187 30.9867C55.07 31.4131 56.1522 31.375 57.0922 30.8963C58.119 30.3733 58.7147 29.4902 58.6854 28.5339C58.6374 26.9376 57.701 25.5471 56.3006 24.9916C54.7857 24.3907 53.1058 24.8589 51.6897 26.2745C49.8086 28.1556 49.3341 29.9411 50.1524 32.0632C50.9315 34.0838 52.7949 36.1839 54.7674 38.4073C57.5782 41.5754 60.7641 45.1658 61.4988 49.4281C62.1514 53.2129 61.2192 56.8299 58.8751 59.6129C56.5059 62.4294 52.8947 64.1094 49.2176 64.1094Z" fill="#4EA795"/>
</g>
<defs>
<clipPath id="clip0_2335_4813">
<rect width="42.7013" height="51.11" fill="white" transform="translate(19 13)"/>
</clipPath>
</defs>
</svg>
