<svg width="80" height="80" viewBox="0 0 80 80" fill="none" xmlns="http://www.w3.org/2000/svg">
<circle cx="40" cy="40" r="40" fill="#1D1D1D"/>
<path d="M38.9371 21.5343C37.2218 18.7434 35.121 17.2255 32.693 17.0228C29.7035 16.7738 27.3563 18.6322 26.7695 19.3037C26.1284 20.0375 25.3456 21.4005 25.1867 22.9874C23.6992 22.4112 22.1309 22.4946 21.1865 22.7344C20.3228 22.9542 17.6035 24.2086 16.4763 26.9889C15.561 29.2473 15.9663 31.8064 17.6803 34.5973C19.695 37.8756 22.9654 39.5896 27.1749 39.5896C27.4914 39.5896 27.8146 39.5803 28.1431 39.5604C31.0029 39.3896 34.0971 38.3246 34.5157 38.0663C35.0481 37.8358 37.2641 35.5377 38.6854 33.0793C41.0167 29.0513 41.1028 25.059 38.9371 21.5343ZM36.7661 31.9018C35.5104 34.0899 33.9567 35.8808 33.3262 36.1311C32.3659 36.5126 30.4903 37.1749 27.9511 37.3166C24.1297 37.5299 21.3189 36.2172 19.5996 33.4184C18.2803 31.2713 17.9307 29.393 18.5625 27.834C19.34 25.9173 21.3971 25.0047 21.7428 24.9159C21.862 24.8855 24.584 24.2219 25.9496 26.3783C25.9536 26.3836 25.9563 26.3875 25.9589 26.3928C26.0132 26.4776 26.0635 26.5664 26.1126 26.6604C26.604 27.6048 26.698 28.4843 26.3841 29.2062C26.0874 29.8884 25.4291 30.4143 24.5787 30.65C23.2237 31.0249 22.4263 29.9109 22.3455 29.793C22.009 29.2698 21.3123 29.1188 20.7891 29.4566C20.2672 29.793 20.1162 30.4898 20.4526 31.0116C20.9441 31.7733 22.2368 32.98 24.0356 32.98C24.3972 32.9786 24.78 32.9309 25.1801 32.8197C26.6874 32.4024 27.8795 31.413 28.4478 30.1056C28.6226 29.703 28.7352 29.2778 28.7842 28.8393C29.1988 28.9943 29.628 29.0857 30.0651 29.1109C31.4903 29.1943 32.9103 28.5784 33.9646 27.422C35.6349 25.5875 35.0362 23.3265 34.4865 22.3887C34.1726 21.8509 33.4825 21.6707 32.946 21.986C32.4096 22.2999 32.2294 22.99 32.5434 23.5265C32.5513 23.5384 33.2838 24.8232 32.2983 25.9054C31.7049 26.5584 30.938 26.9068 30.1962 26.8631C29.4107 26.818 28.6677 26.3359 28.0478 25.4709C26.4093 23.186 28.3802 20.8826 28.465 20.7846C28.7008 20.5157 30.4426 19.0944 32.505 19.2666C34.1805 19.407 35.6985 20.566 37.0178 22.7132C38.7397 25.5147 38.655 28.6049 36.7661 31.9018Z" fill="#4FA695"/>
<path d="M20.1486 41.9144C17.6757 44.0615 16.5206 46.3821 16.7167 48.8114C16.9591 51.801 19.1751 53.8143 19.9341 54.2832C20.7632 54.7958 22.2348 55.3455 23.827 55.2436C23.5011 56.8052 23.8389 58.3391 24.2296 59.2318C24.5873 60.0478 26.2682 62.5261 29.1955 63.1844C31.5731 63.7195 34.0315 62.9009 36.5058 60.7551C39.4119 58.2331 40.5683 54.727 39.8821 50.5731C39.8305 50.2605 39.7682 49.9439 39.6954 49.6221C39.0596 46.8285 37.5045 43.9502 37.1813 43.5793C36.8674 43.0919 34.2381 41.2799 31.581 40.2785C27.2245 38.636 23.272 39.2029 20.1486 41.9144ZM30.7307 42.3647C33.095 43.2469 35.1137 44.4867 35.4647 45.0682C35.9985 45.9543 36.9575 47.6961 37.5112 50.1784C38.3456 53.9137 37.5085 56.9006 35.0276 59.0544C33.1242 60.7061 31.328 61.3578 29.6869 60.9882C27.6696 60.5339 26.4324 58.653 26.2894 58.3272C26.2404 58.2146 25.141 55.6369 27.0457 53.9375C27.0497 53.9322 27.0536 53.9296 27.0589 53.9256C27.1331 53.858 27.2126 53.7945 27.2974 53.7309C28.1491 53.0924 29.0008 52.8553 29.765 53.0474C30.4869 53.2289 31.1121 53.7931 31.4843 54.5932C32.0751 55.8687 31.1068 56.837 31.0035 56.9364C30.5426 57.3536 30.5068 58.0662 30.9254 58.5272C31.3426 58.9868 32.0539 59.0226 32.5149 58.6053C33.1864 57.996 34.1653 56.5244 33.8726 54.7495C33.8116 54.3932 33.703 54.0236 33.5282 53.6461C32.8712 52.2275 31.7003 51.2129 30.3174 50.8645C29.8922 50.7572 29.4538 50.7162 29.0127 50.7387C29.0975 50.3042 29.1187 49.8658 29.071 49.4313C28.9213 48.0114 28.0815 46.7106 26.7689 45.8589C24.6866 44.5105 22.5527 45.4695 21.7183 46.1649C21.2388 46.5623 21.1739 47.2723 21.5726 47.7504C21.9699 48.2286 22.6799 48.2935 23.1581 47.8961C23.1687 47.8869 24.3171 46.9544 25.545 47.7491C26.2854 48.2286 26.7543 48.928 26.8324 49.6671C26.9159 50.4499 26.5622 51.2606 25.8099 52.0142C23.823 54.0037 21.2282 52.4355 21.1182 52.3666C20.8149 52.1785 19.1274 50.691 18.9618 48.6286C18.8267 46.953 19.7221 45.2655 21.6255 43.6138C24.1078 41.46 27.1702 41.0401 30.7307 42.3647Z" fill="#4FA695"/>
<path d="M42.3146 33.4777C43.7358 35.9361 45.9518 38.2343 46.4843 38.4648C46.9029 38.7231 49.9971 39.788 52.8569 39.9589C53.1853 39.9788 53.5085 39.988 53.8251 39.988C58.0346 39.988 61.305 38.274 63.3197 34.9957C65.0337 32.2048 65.439 29.6457 64.5237 27.3873C63.3965 24.6071 60.6771 23.3527 59.8135 23.1328C58.8691 22.8931 57.3008 22.8096 55.8133 23.3858C55.6544 21.799 54.8715 20.436 54.2304 19.7022C53.6437 19.0306 51.2965 17.1722 48.3069 17.4212C45.879 17.6239 43.7782 19.1419 42.0629 21.9327C39.8972 25.4574 39.9833 29.4497 42.3146 33.4777ZM43.9822 23.1116C45.3015 20.9645 46.8194 19.8055 48.495 19.6651C50.5574 19.4929 52.2992 20.9141 52.535 21.183C52.6198 21.281 54.5907 23.5845 52.9522 25.8694C52.3323 26.7343 51.5892 27.2165 50.8038 27.2615C50.062 27.3052 49.2951 26.9569 48.7017 26.3038C47.7162 25.2217 48.4487 23.9368 48.4566 23.9249C48.7705 23.3884 48.5904 22.6983 48.0539 22.3844C47.5175 22.0692 46.8274 22.2493 46.5135 22.7871C45.9638 23.7249 45.3651 25.9859 47.0353 27.8205C48.0897 28.9768 49.5097 29.5928 50.9349 29.5093C51.372 29.4841 51.8012 29.3927 52.2158 29.2378C52.2648 29.6762 52.3774 30.1014 52.5522 30.5041C53.1204 31.8114 54.3126 32.8009 55.8199 33.2181C56.2199 33.3294 56.6028 33.3771 56.9644 33.3784C58.7631 33.3784 60.0559 32.1717 60.5473 31.4101C60.8838 30.8882 60.7328 30.1915 60.2109 29.855C59.6877 29.5173 58.991 29.6683 58.6545 30.1915C58.5737 30.3094 57.7763 31.4233 56.4213 31.0485C55.5709 30.8127 54.9126 30.2868 54.6159 29.6047C54.302 28.8828 54.396 28.0033 54.8874 27.0588C54.9364 26.9648 54.9868 26.8761 55.0411 26.7913C55.0437 26.786 55.0464 26.782 55.0504 26.7767C56.416 24.6203 59.138 25.2839 59.2572 25.3144C59.6029 25.4031 61.66 26.3158 62.4375 28.2324C63.0693 29.7914 62.7196 31.6697 61.4004 33.8168C59.6811 36.6157 56.8703 37.9283 53.0489 37.7151C50.5097 37.5733 48.6341 36.911 47.6738 36.5296C47.0433 36.2792 45.4896 34.4884 44.2339 32.3002C42.345 29.0033 42.2603 25.9131 43.9822 23.1116Z" fill="#4FA695"/>
<path d="M41.7113 58.6102C43.5763 61.3043 45.7553 62.7057 48.1912 62.7759C51.19 62.862 53.4325 60.8792 53.9822 60.1771C54.5822 59.4102 55.2896 58.0062 55.3624 56.4127C56.8791 56.9068 58.4407 56.7385 59.3706 56.4485C60.221 56.1822 62.8688 54.7821 63.8423 51.9449C64.6331 49.6401 64.09 47.1062 62.2264 44.4134C60.0368 41.249 56.6777 39.7151 52.4748 39.9442C52.1583 39.9615 51.8364 39.988 51.5092 40.0264C48.6627 40.3522 45.6321 41.5841 45.2268 41.8649C44.7075 42.1232 42.62 44.5392 41.3338 47.0705C39.2264 51.2177 39.3562 55.2086 41.7113 58.6102ZM43.3154 48.1407C44.4506 45.8876 45.9036 44.016 46.5209 43.7312C47.46 43.2981 49.2959 42.5351 51.8231 42.2556C55.6273 41.8344 58.5056 42.9934 60.3746 45.6942C61.8091 47.7659 62.2595 49.6229 61.7137 51.2137C61.0409 53.1701 59.0368 54.1927 58.6964 54.3C58.5785 54.3371 55.8975 55.1477 54.4167 53.0681C54.4127 53.0628 54.41 53.0589 54.4061 53.0536C54.3478 52.9714 54.2922 52.8853 54.2379 52.7953C53.6961 51.8787 53.5544 51.0058 53.8286 50.268C54.0882 49.5713 54.716 49.0096 55.5532 48.7288C56.8857 48.2811 57.7427 49.3501 57.8301 49.4626C58.1944 49.9673 58.899 50.0799 59.4024 49.7143C59.9057 49.3501 60.0183 48.6467 59.654 48.1434C59.1216 47.4096 57.7652 46.2744 55.9691 46.3724C55.6075 46.3936 55.2286 46.4612 54.8352 46.5949C53.353 47.093 52.2165 48.146 51.7198 49.4825C51.5675 49.8945 51.4774 50.3249 51.4523 50.7647C51.0297 50.6322 50.5966 50.5647 50.1582 50.5634C48.7303 50.5581 47.3461 51.2495 46.3566 52.4615C44.7883 54.3834 45.5089 56.6087 46.1089 57.5161C46.452 58.0366 47.15 58.1783 47.6693 57.834C48.1885 57.4909 48.3302 56.7928 47.9872 56.2736C47.9792 56.2617 47.1779 55.0192 48.1024 53.8854C48.6601 53.2006 49.4058 52.8112 50.1489 52.8151C50.9357 52.8178 51.7039 53.2589 52.3702 54.0881C54.1306 56.2802 52.2881 58.6883 52.2086 58.7903C51.9874 59.0711 50.3264 60.5851 48.2574 60.5255C46.5765 60.4765 44.9976 59.4009 43.5644 57.3293C41.6915 54.6245 41.608 51.5343 43.3154 48.1407Z" fill="#4FA695"/>
<path d="M40.281 37.5238L41.9858 39.2286C42.2467 39.4895 42.2467 39.9107 41.9858 40.1717L40.281 41.8764C40.0201 42.1373 39.5989 42.1373 39.3379 41.8764L37.6332 40.1717C37.3723 39.9107 37.3723 39.4895 37.6332 39.2286L39.3379 37.5238C39.5989 37.2629 40.0214 37.2629 40.281 37.5238Z" fill="#4FA695"/>
</svg>
