<svg width="80" height="80" viewBox="0 0 80 80" fill="none" xmlns="http://www.w3.org/2000/svg">
<circle cx="40" cy="40" r="40" fill="#1D1D1D"/>
<g clip-path="url(#clip0_2335_4805)">
<path d="M39.2371 24.2077C39.2371 27.2939 39.2318 35.7848 39.2318 35.7848L39.2245 35.8417C38.9328 38.0318 37.1281 39.707 34.9253 39.8365C34.9021 39.8376 34.879 39.8386 34.8569 39.8386C34.1693 39.847 24.538 39.9808 24.1706 39.9808C22.9291 39.9808 21.813 39.2985 21.5993 39.1184C21.4656 39.0057 18.988 37.0062 19.1828 33.8105C19.287 32.1048 20.2863 30.6222 22.1521 29.405C23.2113 28.7132 24.3727 28.3763 25.5057 28.4016C26.3902 28.4216 27.2567 28.6616 28.0485 29.1239C29.7564 30.1231 30.7388 31.9489 30.6125 33.8906C30.5198 35.3025 30.1292 36.2892 29.4184 36.9072C28.3707 37.818 26.9409 37.7117 25.4288 37.6001C25.2519 37.5864 25.0719 37.5737 24.8908 37.5611C23.7157 37.4842 22.6175 36.7335 22.0931 35.6479C21.6604 34.7529 21.7035 33.7832 22.2079 33.0535C22.6796 32.3712 23.741 31.6036 26.1164 31.8163C26.5944 31.8594 26.9461 32.2817 26.9029 32.7586C26.8608 33.2356 26.4449 33.5873 25.9616 33.5452C24.7918 33.4399 23.9231 33.6263 23.6357 34.0401C23.4272 34.3412 23.5799 34.7361 23.6557 34.8919C23.8663 35.3289 24.3654 35.788 25.0034 35.829C25.1909 35.8417 25.3751 35.8553 25.5573 35.869C26.7482 35.9564 27.7779 36.0333 28.2791 35.5974C28.6182 35.3025 28.8204 34.6908 28.8804 33.7768C28.9636 32.4965 28.3097 31.2866 27.1725 30.6222C25.9279 29.8946 24.4443 29.981 23.0997 30.8591C21.7214 31.7583 20.9865 32.785 20.9159 33.9106C20.8264 35.3489 21.7762 36.7419 22.5196 37.6001C22.8765 38.0128 23.3998 38.2445 23.9452 38.2381L34.8369 38.1044C36.1351 38.037 37.2365 37.0641 37.4808 35.7679C37.4934 35.7006 37.4976 35.6311 37.4987 35.5626L37.5029 24.9732C37.5029 24.0961 37.146 23.2516 36.5026 22.6557C36.4584 22.6146 36.4131 22.5735 36.3678 22.5335C35.5813 21.8354 34.5062 21.1331 33.3438 21.1036H33.3354C32.2108 21.0784 31.1263 21.7207 30.1123 23.0126C29.1204 24.2751 28.9046 25.746 29.5206 27.0475C30.0828 28.2394 31.2305 28.9965 32.5141 29.0249C33.4291 29.046 34.0566 28.8975 34.3799 28.5858C34.8579 28.1246 34.8716 27.0928 34.8885 25.8977C34.8906 25.7155 34.8937 25.5312 34.8979 25.3438C34.9116 24.7036 34.4978 24.1666 34.0819 23.9181C33.9334 23.8297 33.5533 23.6423 33.2353 23.8244C32.7963 24.074 32.5362 24.9237 32.5383 26.0977C32.5393 26.5768 32.1519 26.9664 31.6717 26.9675H31.6507C31.181 26.9569 30.803 26.5737 30.803 26.1009C30.7988 23.7149 31.6559 22.7252 32.3761 22.3156C33.1479 21.8765 34.1177 21.9186 34.9706 22.4272C36.0067 23.0453 36.6585 24.2056 36.6332 25.3817C36.629 25.5649 36.6269 25.745 36.6237 25.9219C36.6037 27.4381 36.5837 28.8712 35.5845 29.8357C34.9064 30.4896 33.8892 30.7917 32.4751 30.7602C30.5303 30.717 28.7961 29.5788 27.9506 27.7888C27.0577 25.8987 27.3557 23.7118 28.7477 21.9397C30.1165 20.196 31.6738 19.3305 33.3733 19.3684H33.3954C36.2794 19.4463 38.1126 21.6806 38.598 22.324C38.6485 22.3935 39.2371 23.0768 39.2371 24.2077Z" fill="#4FA695"/>
<path d="M40.7656 24.2077C40.7656 27.2939 40.7709 35.7848 40.7709 35.7848L40.7783 35.8417C41.0699 38.0318 42.8747 39.707 45.0774 39.8365C45.1006 39.8376 45.1238 39.8386 45.1459 39.8386C45.8334 39.847 55.4647 39.9808 55.8322 39.9808C57.0736 39.9808 58.1897 39.2985 58.4035 39.1184C58.5372 39.0057 61.0147 37.0062 60.8199 33.8105C60.7157 32.1048 59.7165 30.6222 57.8507 29.405C56.7914 28.7132 55.63 28.3763 54.497 28.4016C53.6126 28.4216 52.746 28.6616 51.9542 29.1239C50.2463 30.1231 49.2639 31.9489 49.3903 33.8906C49.4829 35.3025 49.8736 36.2892 50.5843 36.9072C51.632 37.818 53.0619 37.7117 54.5739 37.6001C54.7508 37.5864 54.9308 37.5737 55.112 37.5611C56.287 37.4842 57.3853 36.7335 57.9096 35.6479C58.3424 34.7529 58.2992 33.7832 57.7949 33.0535C57.3231 32.3712 56.2618 31.6036 53.8863 31.8163C53.4083 31.8594 53.0566 32.2817 53.0998 32.7586C53.1419 33.2356 53.5578 33.5873 54.0411 33.5452C55.2109 33.4399 56.0796 33.6263 56.3671 34.0401C56.5755 34.3412 56.4229 34.7361 56.3471 34.8919C56.1365 35.3289 55.6374 35.788 54.9993 35.829C54.8119 35.8417 54.6276 35.8553 54.4454 35.869C53.2546 35.9564 52.2248 36.0333 51.7236 35.5974C51.3845 35.3025 51.1824 34.6908 51.1224 33.7768C51.0392 32.4965 51.6931 31.2866 52.8302 30.6222C54.0748 29.8946 55.5584 29.981 56.903 30.8591C58.2813 31.7583 59.0163 32.785 59.0868 33.9106C59.1763 35.3489 58.2266 36.7419 57.4832 37.6001C57.1262 38.0128 56.6029 38.2445 56.0575 38.2381L45.1659 38.1044C43.8676 38.037 42.7662 37.0641 42.5219 35.7679C42.5093 35.7006 42.5051 35.6311 42.504 35.5626L42.4998 24.9732C42.4998 24.0961 42.8568 23.2516 43.5001 22.6557C43.5443 22.6146 43.5896 22.5735 43.6349 22.5335C44.4214 21.8354 45.4965 21.1331 46.6589 21.1036H46.6674C47.7919 21.0784 48.8764 21.7207 49.8904 23.0126C50.8823 24.2751 51.0981 25.746 50.4822 27.0475C49.9199 28.2394 48.7722 28.9965 47.4887 29.0249C46.5737 29.046 45.9461 28.8975 45.6228 28.5858C45.1448 28.1246 45.1311 27.0928 45.1143 25.8977C45.1122 25.7155 45.109 25.5312 45.1048 25.3438C45.0911 24.7036 45.5049 24.1666 45.9208 23.9181C46.0693 23.8297 46.4494 23.6423 46.7674 23.8244C47.2065 24.074 47.4665 24.9237 47.4644 26.0977C47.4634 26.5768 47.8509 26.9664 48.331 26.9675H48.3521C48.8217 26.9569 49.1997 26.5737 49.1997 26.1009C49.2039 23.7149 48.3468 22.7252 47.6266 22.3156C46.8548 21.8765 45.885 21.9186 45.0321 22.4272C43.996 23.0453 43.3443 24.2056 43.3696 25.3817C43.3738 25.5649 43.3759 25.745 43.379 25.9219C43.399 27.4381 43.419 28.8712 44.4183 29.8357C45.0964 30.4896 46.1135 30.7917 47.5276 30.7602C49.4724 30.717 51.2066 29.5788 52.0521 27.7888C52.945 25.8987 52.647 23.7118 51.255 21.9397C49.8862 20.196 48.3289 19.3305 46.6295 19.3684H46.6073C43.7233 19.4463 41.8902 21.6806 41.4048 22.324C41.3542 22.3935 40.7656 23.0768 40.7656 24.2077Z" fill="#4FA695"/>
<path d="M39.3387 56.8043C39.3387 53.7181 39.3334 45.2272 39.3334 45.2272L39.326 45.1704C39.0344 42.9802 37.2296 41.305 35.0269 41.1755C35.0037 41.1744 34.9805 41.1734 34.9584 41.1734C34.2709 41.165 24.6396 41.0312 24.2721 41.0312C23.0307 41.0312 21.9146 41.7136 21.7008 41.8936C21.5671 42.0063 19.0895 44.0058 19.2843 47.2015C19.3886 48.9073 20.3878 50.3898 22.2536 51.607C23.3129 52.2988 24.4743 52.6357 25.6073 52.6104C26.4917 52.5904 27.3583 52.3504 28.1501 51.8881C29.858 50.8889 30.8404 49.0631 30.714 47.1215C30.6214 45.7095 30.2307 44.7229 29.52 44.1048C28.4723 43.194 27.0424 43.3003 25.5304 43.4119C25.3535 43.4256 25.1734 43.4383 24.9923 43.4509C23.8173 43.5278 22.719 44.2785 22.1947 45.3641C21.7619 46.2591 21.8051 47.2289 22.3094 47.9586C22.7812 48.6409 23.8425 49.4085 26.218 49.1958C26.696 49.1526 27.0477 48.7304 27.0045 48.2534C26.9624 47.7764 26.5465 47.4247 26.0632 47.4668C24.8934 47.5721 24.0247 47.3858 23.7372 46.9719C23.5288 46.6708 23.6814 46.276 23.7572 46.1201C23.9678 45.6831 24.4669 45.2241 25.105 45.183C25.2924 45.1704 25.4767 45.1567 25.6589 45.143C26.8497 45.0556 27.8795 44.9787 28.3807 45.4146C28.7198 45.7095 28.9219 46.3212 28.9819 47.2352C29.0651 48.5156 28.4112 49.7254 27.2741 50.3898C26.0295 51.1174 24.5459 51.031 23.2013 50.1529C21.823 49.2537 21.088 48.2271 21.0175 47.1015C20.928 45.6631 21.8777 44.2701 22.6211 43.4119C22.9781 42.9992 23.5014 42.7675 24.0468 42.7739L34.9384 42.9076C36.2367 42.975 37.3381 43.9479 37.5824 45.2441C37.595 45.3115 37.5992 45.381 37.6003 45.4494L37.6045 56.0388C37.6045 56.9159 37.2475 57.7604 36.6042 58.3564C36.56 58.3974 36.5147 58.4385 36.4694 58.4785C35.6829 59.1766 34.6078 59.8789 33.4454 59.9084H33.4369C32.3124 59.9337 31.2279 59.2914 30.2139 57.9994C29.222 56.7369 29.0062 55.266 29.6221 53.9645C30.1844 52.7726 31.3321 52.0155 32.6156 51.9871C33.5306 51.966 34.1582 52.1145 34.4814 52.4262C34.9595 52.8874 34.9732 53.9193 34.99 55.1143C34.9921 55.2965 34.9953 55.4808 34.9995 55.6682C35.0132 56.3084 34.5994 56.8454 34.1835 57.0939C34.035 57.1823 33.6549 57.3697 33.3369 57.1876C32.8978 56.938 32.6377 56.0883 32.6399 54.9143C32.6409 54.4352 32.2534 54.0456 31.7733 54.0446H31.7522C31.2826 54.0551 30.9046 54.4384 30.9046 54.9111C30.9004 57.2971 31.7575 58.2869 32.4777 58.6965C33.2495 59.1355 34.2193 59.0934 35.0721 58.5848C36.1082 57.9668 36.76 56.8064 36.7347 55.6303C36.7305 55.4471 36.7284 55.267 36.7253 55.0901C36.7053 53.5739 36.6853 52.1408 35.686 51.1763C35.0079 50.5225 33.9908 50.2203 32.5767 50.2519C30.6319 50.295 28.8977 51.4333 28.0522 53.2233C27.1593 55.1133 27.4573 57.3003 28.8493 59.0724C30.2181 60.816 31.7754 61.6815 33.4748 61.6436H33.4969C36.381 61.5657 38.2141 59.3314 38.6995 58.688C38.7501 58.6185 39.3387 57.9352 39.3387 56.8043Z" fill="#4FA695"/>
<path d="M40.875 56.8043C40.875 53.7181 40.8803 45.2272 40.8803 45.2272L40.8876 45.1704C41.1793 42.9802 42.984 41.305 45.1868 41.1755C45.21 41.1744 45.2331 41.1734 45.2552 41.1734C45.9428 41.165 55.5741 41.0312 55.9415 41.0312C57.183 41.0312 58.2991 41.7136 58.5128 41.8936C58.6465 42.0063 61.1241 44.0058 60.9293 47.2015C60.8251 48.9073 59.8258 50.3898 57.96 51.607C56.9008 52.2988 55.7394 52.6357 54.6064 52.6104C53.7219 52.5904 52.8554 52.3504 52.0636 51.8881C50.3557 50.8889 49.3733 49.0631 49.4996 47.1215C49.5923 45.7095 49.9829 44.7229 50.6937 44.1048C51.7414 43.194 53.1713 43.3003 54.6833 43.4119C54.8602 43.4256 55.0402 43.4383 55.2213 43.4509C56.3964 43.5278 57.4946 44.2785 58.019 45.3641C58.4518 46.2591 58.4086 47.2289 57.9042 47.9586C57.4325 48.6409 56.3711 49.4085 53.9957 49.1958C53.5177 49.1526 53.166 48.7304 53.2092 48.2534C53.2513 47.7764 53.6672 47.4247 54.1505 47.4668C55.3203 47.5721 56.189 47.3858 56.4764 46.9719C56.6849 46.6708 56.5322 46.276 56.4564 46.1201C56.2458 45.6831 55.7467 45.2241 55.1087 45.183C54.9212 45.1704 54.737 45.1567 54.5548 45.143C53.3639 45.0556 52.3342 44.9787 51.833 45.4146C51.4939 45.7095 51.2917 46.3212 51.2317 47.2352C51.1485 48.5156 51.8024 49.7254 52.9396 50.3898C54.1842 51.1174 55.6678 51.031 57.0124 50.1529C58.3907 49.2537 59.1256 48.2271 59.1962 47.1015C59.2857 45.6631 58.3359 44.2701 57.5926 43.4119C57.2356 42.9992 56.7123 42.7675 56.1669 42.7739L45.2752 42.9076C43.977 42.975 42.8756 43.9479 42.6313 45.2441C42.6187 45.3115 42.6145 45.381 42.6134 45.4494L42.6092 56.0388C42.6092 56.9159 42.9661 57.7604 43.6095 58.3564C43.6537 58.3974 43.699 58.4385 43.7443 58.4785C44.5308 59.1766 45.6059 59.8789 46.7683 59.9084H46.7767C47.9013 59.9337 48.9858 59.2914 49.9998 57.9994C50.9917 56.7369 51.2075 55.266 50.5915 53.9645C50.0293 52.7726 48.8816 52.0155 47.598 51.9871C46.683 51.966 46.0555 52.1145 45.7322 52.4262C45.2542 52.8874 45.2405 53.9193 45.2236 55.1143C45.2215 55.2965 45.2184 55.4808 45.2142 55.6682C45.2005 56.3084 45.6143 56.8454 46.0302 57.0939C46.1787 57.1823 46.5588 57.3697 46.8768 57.1876C47.3158 56.938 47.5759 56.0883 47.5738 54.9143C47.5728 54.4352 47.9602 54.0456 48.4404 54.0446H48.4614C48.9311 54.0551 49.3091 54.4384 49.3091 54.9111C49.3133 57.2971 48.4562 58.2869 47.736 58.6965C46.9642 59.1355 45.9944 59.0934 45.1415 58.5848C44.1054 57.9668 43.4537 56.8064 43.4789 55.6303C43.4831 55.4471 43.4852 55.267 43.4884 55.0901C43.5084 53.5739 43.5284 52.1408 44.5277 51.1763C45.2057 50.5225 46.2229 50.2203 47.637 50.2519C49.5818 50.295 51.316 51.4333 52.1615 53.2233C53.0544 55.1133 52.7564 57.3003 51.3644 59.0724C49.9956 60.816 48.4383 61.6815 46.7388 61.6436H46.7167C43.8327 61.5657 41.9995 59.3314 41.5141 58.688C41.4636 58.6185 40.875 57.9352 40.875 56.8043Z" fill="#4FA695"/>
<path d="M40.1508 20.2493C40.9416 20.2493 41.5827 17.9549 41.5827 15.1247C41.5827 12.2944 40.9416 10 40.1508 10C39.3599 10 38.7188 12.2944 38.7188 15.1247C38.7188 17.9549 39.3599 20.2493 40.1508 20.2493Z" fill="#4FA695"/>
<path d="M40.1508 70.6478C40.9416 70.6478 41.5827 68.3534 41.5827 65.5231C41.5827 62.6928 40.9416 60.3984 40.1508 60.3984C39.3599 60.3984 38.7188 62.6928 38.7188 65.5231C38.7188 68.3534 39.3599 70.6478 40.1508 70.6478Z" fill="#4FA695"/>
<path d="M66.9606 41.8484C69.7909 41.8484 72.0853 41.2072 72.0853 40.4164C72.0853 39.6255 69.7909 38.9844 66.9606 38.9844C64.1303 38.9844 61.8359 39.6255 61.8359 40.4164C61.8359 41.2072 64.1303 41.8484 66.9606 41.8484Z" fill="#4FA695"/>
<path d="M14.0387 41.739C16.869 41.739 19.1634 41.0979 19.1634 40.307C19.1634 39.5161 16.869 38.875 14.0387 38.875C11.2085 38.875 8.91406 39.5161 8.91406 40.307C8.91406 41.0979 11.2085 41.739 14.0387 41.739Z" fill="#4FA695"/>
<path d="M40.5096 38.8669L41.612 40.0188C41.8142 40.2304 41.8068 40.5653 41.5952 40.7674L40.4433 41.8699C40.2316 42.072 39.8968 42.0646 39.6946 41.853L38.5922 40.7011C38.39 40.4894 38.3974 40.1546 38.609 39.9524L39.761 38.85C39.9716 38.6478 40.3074 38.6552 40.5096 38.8669Z" fill="#4FA695"/>
</g>
<defs>
<clipPath id="clip0_2335_4805">
<rect width="63.166" height="60.6494" fill="white" transform="translate(8.91406 10)"/>
</clipPath>
</defs>
</svg>
